<?xml version="1.0" encoding="UTF-8" standalone="no"?>
<!DOCTYPE svg PUBLIC "-//W3C//DTD SVG 1.1//EN"
 "http://www.w3.org/Graphics/SVG/1.1/DTD/svg11.dtd">
<!-- Generated by graphviz version 3.0.0 (20220226.1711)
 -->
<!-- Title: dependency&#45;cruiser output Pages: 1 -->
<svg width="239pt" height="376pt"
 viewBox="0.00 0.00 239.00 376.00" xmlns="http://www.w3.org/2000/svg" xmlns:xlink="http://www.w3.org/1999/xlink">
<g id="graph0" class="graph" transform="scale(1 1) rotate(0) translate(4 372)">
<title>dependency&#45;cruiser output</title>
<polygon fill="white" stroke="transparent" points="-4,4 -4,-372 235,-372 235,4 -4,4"/>
<g id="clust1" class="cluster">
<title>cluster_..</title>
<path fill="#ffffff" stroke="black" stroke-width="2" d="M157,-26C157,-26 203,-26 203,-26 209,-26 215,-32 215,-38 215,-38 215,-66 215,-66 215,-72 209,-78 203,-78 203,-78 157,-78 157,-78 151,-78 145,-72 145,-66 145,-66 145,-38 145,-38 145,-32 151,-26 157,-26"/>
<text text-anchor="middle" x="180" y="-66.8" font-family="Helvetica,sans-Serif" font-weight="bold" font-size="9.00">..</text>
</g>
<g id="clust2" class="cluster">
<title>cluster_src</title>
<path fill="#ffffff" stroke="black" stroke-width="2" d="M20,-86C20,-86 211,-86 211,-86 217,-86 223,-92 223,-98 223,-98 223,-348 223,-348 223,-354 217,-360 211,-360 211,-360 20,-360 20,-360 14,-360 8,-354 8,-348 8,-348 8,-98 8,-98 8,-92 14,-86 20,-86"/>
<text text-anchor="middle" x="115.5" y="-348.8" font-family="Helvetica,sans-Serif" font-weight="bold" font-size="9.00">src</text>
</g>
<g id="clust4" class="cluster">
<title>cluster_src/pages</title>
<path fill="#ffffff" stroke="black" stroke-width="2" d="M28,-184C28,-184 125,-184 125,-184 131,-184 137,-190 137,-196 137,-196 137,-322 137,-322 137,-328 131,-334 125,-334 125,-334 28,-334 28,-334 22,-334 16,-328 16,-322 16,-322 16,-196 16,-196 16,-190 22,-184 28,-184"/>
<text text-anchor="middle" x="76.5" y="-322.8" font-family="Helvetica,sans-Serif" font-weight="bold" font-size="9.00">pages</text>
</g>
<g id="clust5" class="cluster">
<title>cluster_src/pages/api</title>
<path fill="#ffffff" stroke="black" stroke-width="2" d="M36,-192C36,-192 117,-192 117,-192 123,-192 129,-198 129,-204 129,-204 129,-296 129,-296 129,-302 123,-308 117,-308 117,-308 36,-308 36,-308 30,-308 24,-302 24,-296 24,-296 24,-204 24,-204 24,-198 30,-192 36,-192"/>
<text text-anchor="middle" x="76.5" y="-296.8" font-family="Helvetica,sans-Serif" font-weight="bold" font-size="9.00">api</text>
</g>
<g id="clust6" class="cluster">
<title>cluster_src/pages/api/twitter</title>
<path fill="#ffffff" stroke="black" stroke-width="2" d="M44,-200C44,-200 109,-200 109,-200 115,-200 121,-206 121,-212 121,-212 121,-270 121,-270 121,-276 115,-282 109,-282 109,-282 44,-282 44,-282 38,-282 32,-276 32,-270 32,-270 32,-212 32,-212 32,-206 38,-200 44,-200"/>
<text text-anchor="middle" x="76.5" y="-270.8" font-family="Helvetica,sans-Serif" font-weight="bold" font-size="9.00">twitter</text>
</g>
<g id="clust3" class="cluster">
<title>cluster_src/i18n</title>
<path fill="#ffffff" stroke="black" stroke-width="2" d="M53.5,-94C53.5,-94 203,-94 203,-94 209,-94 215,-100 215,-106 215,-106 215,-164 215,-164 215,-170 209,-176 203,-176 203,-176 53.5,-176 53.5,-176 47.5,-176 41.5,-170 41.5,-164 41.5,-164 41.5,-106 41.5,-106 41.5,-100 47.5,-94 53.5,-94"/>
<text text-anchor="middle" x="128.25" y="-164.8" font-family="Helvetica,sans-Serif" font-weight="bold" font-size="9.00">i18n</text>
</g>
<!-- ../utils -->
<g id="node1" class="node">
<title>../utils</title>
<g id="a_node1"><a xlink:title="utils">
<path fill="#ffffcc" stroke="red" d="M201,-52C201,-52 159,-52 159,-52 156,-52 153,-49 153,-46 153,-46 153,-40 153,-40 153,-37 156,-34 159,-34 159,-34 201,-34 201,-34 204,-34 207,-37 207,-40 207,-40 207,-46 207,-46 207,-49 204,-52 201,-52"/>
<text text-anchor="start" x="171.5" y="-40.8" font-family="Helvetica,sans-Serif" font-size="9.00" fill="red">utils</text>
</a>
</g>
</g>
<!-- ./languages -->
<g id="node2" class="node">
<title>./languages</title>
<g id="a_node2"><a xlink:title="languages">
<path fill="#ffffcc" stroke="red" d="M204,-18C204,-18 156,-18 156,-18 153,-18 150,-15 150,-12 150,-12 150,-6 150,-6 150,-3 153,0 156,0 156,0 204,0 204,0 207,0 210,-3 210,-6 210,-6 210,-12 210,-12 210,-15 207,-18 204,-18"/>
<text text-anchor="start" x="158" y="-6.8" font-family="Helvetica,sans-Serif" font-size="9.00" fill="red">languages</text>
</a>
</g>
</g>
<!-- src/i18n/en.json -->
<g id="node3" class="node">
<title>src/i18n/en.json</title>
<g id="a_node3"><a xlink:href="src/i18n/en.json" xlink:title="en.json">
<path fill="#ffee44" stroke="black" d="M201,-120C201,-120 159,-120 159,-120 156,-120 153,-117 153,-114 153,-114 153,-108 153,-108 153,-105 156,-102 159,-102 159,-102 201,-102 201,-102 204,-102 207,-105 207,-108 207,-108 207,-114 207,-114 207,-117 204,-120 201,-120"/>
<text text-anchor="start" x="164.5" y="-108.8" font-family="Helvetica,sans-Serif" font-size="9.00">en.json</text>
</a>
</g>
</g>
<!-- src/i18n/index.js -->
<g id="node4" class="node">
<title>src/i18n/index.js</title>
<g id="a_node4"><a xlink:href="src/i18n/index.js" xlink:title="index.js">
<path fill="#ffffcc" stroke="black" d="M97.5,-120C97.5,-120 55.5,-120 55.5,-120 52.5,-120 49.5,-117 49.5,-114 49.5,-114 49.5,-108 49.5,-108 49.5,-105 52.5,-102 55.5,-102 55.5,-102 97.5,-102 97.5,-102 100.5,-102 103.5,-105 103.5,-108 103.5,-108 103.5,-114 103.5,-114 103.5,-117 100.5,-120 97.5,-120"/>
<text text-anchor="start" x="60.5" y="-108.8" font-family="Helvetica,sans-Serif" font-size="9.00">index.js</text>
</a>
</g>
</g>
<!-- src/i18n/index.js&#45;&gt;../utils -->
<g id="edge1" class="edge">
<title>src/i18n/index.js&#45;&gt;../utils</title>
<path fill="none" stroke="#000000" stroke-width="2" stroke-opacity="0.200000" d="M91.19,-101.83C109.07,-89.85 140.45,-68.83 160.46,-55.42"/>
<polygon fill="#000000" fill-opacity="0.200000" stroke="#000000" stroke-width="2" stroke-opacity="0.200000" points="161.71,-57.11 165.53,-52.03 159.37,-53.62 161.71,-57.11"/>
</g>
<!-- src/i18n/index.js&#45;&gt;./languages -->
<g id="edge3" class="edge">
<title>src/i18n/index.js&#45;&gt;./languages</title>
<path fill="none" stroke="#000000" stroke-width="2" stroke-opacity="0.200000" d="M82.39,-101.74C92.11,-84.14 115.5,-45.59 145,-23 145.76,-22.42 146.55,-21.86 147.36,-21.31"/>
<polygon fill="#000000" fill-opacity="0.200000" stroke="#000000" stroke-width="2" stroke-opacity="0.200000" points="148.85,-22.87 152.96,-18.02 146.72,-19.25 148.85,-22.87"/>
</g>
<!-- src/i18n/index.js&#45;&gt;src/i18n/en.json -->
<g id="edge2" class="edge">
<title>src/i18n/index.js&#45;&gt;src/i18n/en.json</title>
<path fill="none" stroke="#000000" stroke-width="2" stroke-opacity="0.200000" d="M103.64,-111C116.78,-111 132.83,-111 146.73,-111"/>
<polygon fill="#000000" fill-opacity="0.200000" stroke="#000000" stroke-width="2" stroke-opacity="0.200000" points="146.95,-113.1 152.95,-111 146.95,-108.9 146.95,-113.1"/>
</g>
<!-- src/i18n/ru.json -->
<g id="node5" class="node">
<title>src/i18n/ru.json</title>
<g id="a_node5"><a xlink:href="src/i18n/ru.json" xlink:title="ru.json">
<path fill="#ffee44" stroke="black" d="M201,-150C201,-150 159,-150 159,-150 156,-150 153,-147 153,-144 153,-144 153,-138 153,-138 153,-135 156,-132 159,-132 159,-132 201,-132 201,-132 204,-132 207,-135 207,-138 207,-138 207,-144 207,-144 207,-147 204,-150 201,-150"/>
<text text-anchor="start" x="166" y="-138.8" font-family="Helvetica,sans-Serif" font-size="9.00">ru.json</text>
</a>
</g>
</g>
<!-- src/i18n/index.js&#45;&gt;src/i18n/ru.json -->
<g id="edge4" class="edge">
<title>src/i18n/index.js&#45;&gt;src/i18n/ru.json</title>
<path fill="none" stroke="#000000" stroke-width="2" stroke-opacity="0.200000" d="M103.64,-118.73C116.9,-122.64 133.12,-127.44 147.11,-131.57"/>
<polygon fill="#000000" fill-opacity="0.200000" stroke="#000000" stroke-width="2" stroke-opacity="0.200000" points="146.6,-133.61 152.95,-133.3 147.79,-129.59 146.6,-133.61"/>
</g>
<!-- src/pages/api/twitter/search.js -->
<g id="node6" class="node">
<title>src/pages/api/twitter/search.js</title>
<g id="a_node6"><a xlink:href="src/pages/api/twitter/search.js" xlink:title="search.js">
<path fill="#ccffcc" stroke="black" d="M97.5,-256C97.5,-256 55.5,-256 55.5,-256 52.5,-256 49.5,-253 49.5,-250 49.5,-250 49.5,-244 49.5,-244 49.5,-241 52.5,-238 55.5,-238 55.5,-238 97.5,-238 97.5,-238 100.5,-238 103.5,-241 103.5,-244 103.5,-244 103.5,-250 103.5,-250 103.5,-253 100.5,-256 97.5,-256"/>
<text text-anchor="start" x="58" y="-244.8" font-family="Helvetica,sans-Serif" font-size="9.00">search.js</text>
</a>
</g>
</g>
<!-- src/pages/api/twitter/twitterhome.js -->
<g id="node7" class="node">
<title>src/pages/api/twitter/twitterhome.js</title>
<g id="a_node7"><a xlink:href="src/pages/api/twitter/twitterhome.js" xlink:title="twitterhome.js">
<path fill="#ccffcc" stroke="black" d="M107,-226C107,-226 46,-226 46,-226 43,-226 40,-223 40,-220 40,-220 40,-214 40,-214 40,-211 43,-208 46,-208 46,-208 107,-208 107,-208 110,-208 113,-211 113,-214 113,-214 113,-220 113,-220 113,-223 110,-226 107,-226"/>
<text text-anchor="start" x="48" y="-214.8" font-family="Helvetica,sans-Serif" font-size="9.00">twitterhome.js</text>
</a>
</g>
</g>
</g>
</svg>
